<svg id="visual" viewBox="0 0 456 456" width="456" height="456" xmlns="http://www.w3.org/2000/svg" xmlns:xlink="http://www.w3.org/1999/xlink" version="1.1"><g stroke-width="1" stroke-linejoin="bevel"><path d="M230.7 265L246.3 275.3L272 211.7Z" fill="#19435d" stroke="#19435d"></path><path d="M246.3 275.3L272.3 280L272 211.7Z" fill="#0c2435" stroke="#0c2435"></path><path d="M272 211.7L262.3 191.7L230.7 265Z" fill="#1d4e6b" stroke="#1d4e6b"></path><path d="M272.3 280L328 239.3L272 211.7Z" fill="#15384f" stroke="#15384f"></path><path d="M272 211.7L277.3 155L262.3 191.7Z" fill="#0c2435" stroke="#0c2435"></path><path d="M262.3 191.7L181 237.3L230.7 265Z" fill="#297ea6" stroke="#297ea6"></path><path d="M230.7 265L257.3 324.7L246.3 275.3Z" fill="#112e42" stroke="#112e42"></path><path d="M144 322.7L257.3 324.7L230.7 265Z" fill="#1d4e6b" stroke="#1d4e6b"></path><path d="M246.3 275.3L257.3 324.7L272.3 280Z" fill="#00101c" stroke="#00101c"></path><path d="M272.3 280L356.7 257.3L328 239.3Z" fill="#246688" stroke="#246688"></path><path d="M317 144L277.3 155L272 211.7Z" fill="#277297" stroke="#277297"></path><path d="M262.3 191.7L169.7 216.7L181 237.3Z" fill="#246688" stroke="#246688"></path><path d="M150 182.7L169.7 216.7L181.7 129.3Z" fill="#246688" stroke="#246688"></path><path d="M169.7 216.7L162.7 236.3L181 237.3Z" fill="#00101c" stroke="#00101c"></path><path d="M181 237.3L146 284L230.7 265Z" fill="#1d4e6b" stroke="#1d4e6b"></path><path d="M366.3 289L356.7 257.3L272.3 280Z" fill="#246688" stroke="#246688"></path><path d="M328 239.3L317 144L272 211.7Z" fill="#0c2435" stroke="#0c2435"></path><path d="M257.3 324.7L293 338L272.3 280Z" fill="#00101c" stroke="#00101c"></path><path d="M380.3 182.7L317 144L328 239.3Z" fill="#112e42" stroke="#112e42"></path><path d="M162.7 236.3L146 284L181 237.3Z" fill="#205a7a" stroke="#205a7a"></path><path d="M257.3 324.7L288 389.7L293 338Z" fill="#15384f" stroke="#15384f"></path><path d="M293 338L366.3 289L272.3 280Z" fill="#081a28" stroke="#081a28"></path><path d="M169.7 216.7L130.3 217.3L162.7 236.3Z" fill="#0c2435" stroke="#0c2435"></path><path d="M162.7 236.3L130.3 217.3L146 284Z" fill="#277297" stroke="#277297"></path><path d="M181.7 129.3L169.7 216.7L262.3 191.7Z" fill="#15384f" stroke="#15384f"></path><path d="M181.7 129.3L262.3 191.7L277.3 155Z" fill="#081a28" stroke="#081a28"></path><path d="M150 182.7L130.3 217.3L169.7 216.7Z" fill="#277297" stroke="#277297"></path><path d="M144 322.7L222.7 372.7L257.3 324.7Z" fill="#15384f" stroke="#15384f"></path><path d="M260.3 91.3L181.7 129.3L277.3 155Z" fill="#277297" stroke="#277297"></path><path d="M181.7 129.3L176.7 131L150 182.7Z" fill="#0c2435" stroke="#0c2435"></path><path d="M150 182.7L135 173L130.3 217.3Z" fill="#00101c" stroke="#00101c"></path><path d="M385.7 186.7L328 239.3L356.7 257.3Z" fill="#081a28" stroke="#081a28"></path><path d="M385.7 186.7L380.3 182.7L328 239.3Z" fill="#0c2435" stroke="#0c2435"></path><path d="M146 284L144 322.7L230.7 265Z" fill="#081a28" stroke="#081a28"></path><path d="M100.3 317L144 322.7L146 284Z" fill="#112e42" stroke="#112e42"></path><path d="M161 374.3L226.7 379.3L222.7 372.7Z" fill="#277297" stroke="#277297"></path><path d="M222.7 372.7L226.7 379.3L257.3 324.7Z" fill="#297ea6" stroke="#297ea6"></path><path d="M176.7 131L135 173L150 182.7Z" fill="#246688" stroke="#246688"></path><path d="M404.3 257.3L385.7 186.7L356.7 257.3Z" fill="#081a28" stroke="#081a28"></path><path d="M293 338L382.7 320L366.3 289Z" fill="#081a28" stroke="#081a28"></path><path d="M366.3 289L404.3 257.3L356.7 257.3Z" fill="#1d4e6b" stroke="#1d4e6b"></path><path d="M336.7 377.7L382.7 320L293 338Z" fill="#112e42" stroke="#112e42"></path><path d="M382.7 320L404.3 257.3L366.3 289Z" fill="#297ea6" stroke="#297ea6"></path><path d="M226.7 379.3L288 389.7L257.3 324.7Z" fill="#081a28" stroke="#081a28"></path><path d="M265 76.7L260.3 91.3L312 83.3Z" fill="#19435d" stroke="#19435d"></path><path d="M317 144L260.3 91.3L277.3 155Z" fill="#0c2435" stroke="#0c2435"></path><path d="M133.3 72.3L109.3 114L176.7 131Z" fill="#277297" stroke="#277297"></path><path d="M392.7 151L317 144L380.3 182.7Z" fill="#297ea6" stroke="#297ea6"></path><path d="M288 389.7L336.7 377.7L293 338Z" fill="#00101c" stroke="#00101c"></path><path d="M144 322.7L161 374.3L222.7 372.7Z" fill="#19435d" stroke="#19435d"></path><path d="M263.3 440.3L317 416.3L288 389.7Z" fill="#112e42" stroke="#112e42"></path><path d="M336.7 377.7L395.3 329.7L382.7 320Z" fill="#0c2435" stroke="#0c2435"></path><path d="M382.7 320L395.3 329.7L404.3 257.3Z" fill="#19435d" stroke="#19435d"></path><path d="M413.3 144L392.7 151L385.7 186.7Z" fill="#0c2435" stroke="#0c2435"></path><path d="M385.7 186.7L392.7 151L380.3 182.7Z" fill="#297ea6" stroke="#297ea6"></path><path d="M312 83.3L260.3 91.3L317 144Z" fill="#297ea6" stroke="#297ea6"></path><path d="M172.7 33.7L133.3 72.3L181.7 129.3Z" fill="#246688" stroke="#246688"></path><path d="M350.7 67.3L312 83.3L365.3 73.3Z" fill="#0c2435" stroke="#0c2435"></path><path d="M76.3 211.7L88.7 219.3L135 173Z" fill="#112e42" stroke="#112e42"></path><path d="M135 173L88.7 219.3L130.3 217.3Z" fill="#15384f" stroke="#15384f"></path><path d="M130.3 217.3L73.7 235.7L146 284Z" fill="#15384f" stroke="#15384f"></path><path d="M144 322.7L129.3 355.7L161 374.3Z" fill="#277297" stroke="#277297"></path><path d="M100.3 317L129.3 355.7L144 322.7Z" fill="#0c2435" stroke="#0c2435"></path><path d="M73.7 235.7L100.3 317L146 284Z" fill="#1d4e6b" stroke="#1d4e6b"></path><path d="M46.7 167L76.3 211.7L135 173Z" fill="#246688" stroke="#246688"></path><path d="M88.7 219.3L73.7 235.7L130.3 217.3Z" fill="#297ea6" stroke="#297ea6"></path><path d="M76.3 211.7L73.7 235.7L88.7 219.3Z" fill="#1d4e6b" stroke="#1d4e6b"></path><path d="M288 389.7L317 416.3L336.7 377.7Z" fill="#19435d" stroke="#19435d"></path><path d="M336.7 377.7L351.7 417.3L395.3 329.7Z" fill="#112e42" stroke="#112e42"></path><path d="M263.3 440.3L288 389.7L226.7 379.3Z" fill="#246688" stroke="#246688"></path><path d="M456 216.7L413.3 144L385.7 186.7Z" fill="#277297" stroke="#277297"></path><path d="M365.3 73.3L312 83.3L317 144Z" fill="#0c2435" stroke="#0c2435"></path><path d="M133.3 72.3L176.7 131L181.7 129.3Z" fill="#081a28" stroke="#081a28"></path><path d="M176.7 131L109.3 114L135 173Z" fill="#205a7a" stroke="#205a7a"></path><path d="M219.3 456L226.7 379.3L213.7 456Z" fill="#081a28" stroke="#081a28"></path><path d="M219.3 456L263.3 440.3L226.7 379.3Z" fill="#112e42" stroke="#112e42"></path><path d="M365.3 73.3L317 144L392.7 151Z" fill="#297ea6" stroke="#297ea6"></path><path d="M312 83.3L269.3 43.7L265 76.7Z" fill="#246688" stroke="#246688"></path><path d="M334 456L351.7 417.3L317 416.3Z" fill="#00101c" stroke="#00101c"></path><path d="M317 416.3L351.7 417.3L336.7 377.7Z" fill="#205a7a" stroke="#205a7a"></path><path d="M313 0L269.3 43.7L312 83.3Z" fill="#15384f" stroke="#15384f"></path><path d="M172.7 33.7L181.7 129.3L260.3 91.3Z" fill="#00101c" stroke="#00101c"></path><path d="M395.3 329.7L456 268.3L404.3 257.3Z" fill="#15384f" stroke="#15384f"></path><path d="M404.3 257.3L456 216.7L385.7 186.7Z" fill="#0c2435" stroke="#0c2435"></path><path d="M456 334L456 268.3L395.3 329.7Z" fill="#081a28" stroke="#081a28"></path><path d="M456 268.3L456 216.7L404.3 257.3Z" fill="#205a7a" stroke="#205a7a"></path><path d="M413.3 144L365.3 73.3L392.7 151Z" fill="#277297" stroke="#277297"></path><path d="M73.7 235.7L62.7 299L100.3 317Z" fill="#081a28" stroke="#081a28"></path><path d="M52.7 345.7L94.3 399.3L129.3 355.7Z" fill="#112e42" stroke="#112e42"></path><path d="M0 233.3L62.7 299L73.7 235.7Z" fill="#1d4e6b" stroke="#1d4e6b"></path><path d="M172.7 33.7L260.3 91.3L265 76.7Z" fill="#0c2435" stroke="#0c2435"></path><path d="M133.3 72.3L114 86.3L109.3 114Z" fill="#1d4e6b" stroke="#1d4e6b"></path><path d="M109.3 114L46.7 167L135 173Z" fill="#1d4e6b" stroke="#1d4e6b"></path><path d="M213.7 456L226.7 379.3L170 456Z" fill="#19435d" stroke="#19435d"></path><path d="M263.3 440.3L331.7 456L317 416.3Z" fill="#246688" stroke="#246688"></path><path d="M226.7 379.3L161 374.3L170 456Z" fill="#246688" stroke="#246688"></path><path d="M94.3 399.3L161 374.3L129.3 355.7Z" fill="#277297" stroke="#277297"></path><path d="M444.3 373.3L456 334L395.3 329.7Z" fill="#1d4e6b" stroke="#1d4e6b"></path><path d="M80.7 74.7L46.7 167L109.3 114Z" fill="#0c2435" stroke="#0c2435"></path><path d="M76.3 211.7L0 233.3L73.7 235.7Z" fill="#00101c" stroke="#00101c"></path><path d="M133.3 72.3L80.7 74.7L114 86.3Z" fill="#277297" stroke="#277297"></path><path d="M269.3 43.7L172.7 33.7L265 76.7Z" fill="#0c2435" stroke="#0c2435"></path><path d="M52.7 345.7L129.3 355.7L100.3 317Z" fill="#277297" stroke="#277297"></path><path d="M219.3 456L331.7 456L263.3 440.3Z" fill="#15384f" stroke="#15384f"></path><path d="M351.7 417.3L444.3 373.3L395.3 329.7Z" fill="#15384f" stroke="#15384f"></path><path d="M331.7 456L334 456L317 416.3Z" fill="#1d4e6b" stroke="#1d4e6b"></path><path d="M0 335L52.7 345.7L62.7 299Z" fill="#081a28" stroke="#081a28"></path><path d="M62.7 299L52.7 345.7L100.3 317Z" fill="#081a28" stroke="#081a28"></path><path d="M397.3 456L444.3 373.3L351.7 417.3Z" fill="#246688" stroke="#246688"></path><path d="M94.3 399.3L170 456L161 374.3Z" fill="#277297" stroke="#277297"></path><path d="M456 216.7L456 123L413.3 144Z" fill="#205a7a" stroke="#205a7a"></path><path d="M413.3 144L437.3 72.7L365.3 73.3Z" fill="#246688" stroke="#246688"></path><path d="M444.3 373.3L456 373.7L456 334Z" fill="#297ea6" stroke="#297ea6"></path><path d="M456 374.3L456 373.7L444.3 373.3Z" fill="#1d4e6b" stroke="#1d4e6b"></path><path d="M456 456L456 374.3L444.3 373.3Z" fill="#081a28" stroke="#081a28"></path><path d="M126 14.7L80.7 74.7L133.3 72.3Z" fill="#19435d" stroke="#19435d"></path><path d="M114 86.3L80.7 74.7L109.3 114Z" fill="#112e42" stroke="#112e42"></path><path d="M313 0L236.7 0L269.3 43.7Z" fill="#00101c" stroke="#00101c"></path><path d="M269.3 43.7L234.3 0L172.7 33.7Z" fill="#246688" stroke="#246688"></path><path d="M172.7 33.7L126 14.7L133.3 72.3Z" fill="#112e42" stroke="#112e42"></path><path d="M313 0L312 83.3L350.7 67.3Z" fill="#205a7a" stroke="#205a7a"></path><path d="M313 0L350.7 67.3L378.7 21.7Z" fill="#246688" stroke="#246688"></path><path d="M236.7 0L234.3 0L269.3 43.7Z" fill="#112e42" stroke="#112e42"></path><path d="M456 123L456 97.3L413.3 144Z" fill="#112e42" stroke="#112e42"></path><path d="M456 97.3L437.3 72.7L413.3 144Z" fill="#112e42" stroke="#112e42"></path><path d="M378.7 21.7L350.7 67.3L365.3 73.3Z" fill="#0c2435" stroke="#0c2435"></path><path d="M437.3 72.7L378.7 21.7L365.3 73.3Z" fill="#00101c" stroke="#00101c"></path><path d="M334 456L397.3 456L351.7 417.3Z" fill="#0c2435" stroke="#0c2435"></path><path d="M0 167.7L0 233.3L46.7 167Z" fill="#277297" stroke="#277297"></path><path d="M46.7 167L0 233.3L76.3 211.7Z" fill="#205a7a" stroke="#205a7a"></path><path d="M234.3 0L169 0L172.7 33.7Z" fill="#297ea6" stroke="#297ea6"></path><path d="M52.7 345.7L57.7 409.3L94.3 399.3Z" fill="#0c2435" stroke="#0c2435"></path><path d="M94.3 399.3L86.7 456L170 456Z" fill="#112e42" stroke="#112e42"></path><path d="M0 369.3L57.7 409.3L52.7 345.7Z" fill="#277297" stroke="#277297"></path><path d="M169 0L126 14.7L172.7 33.7Z" fill="#19435d" stroke="#19435d"></path><path d="M0 140.3L0 167.7L46.7 167Z" fill="#277297" stroke="#277297"></path><path d="M44.7 67.3L46.7 167L80.7 74.7Z" fill="#112e42" stroke="#112e42"></path><path d="M443.3 0L371.7 0L378.7 21.7Z" fill="#00101c" stroke="#00101c"></path><path d="M378.7 21.7L371.7 0L313 0Z" fill="#112e42" stroke="#112e42"></path><path d="M456 97.3L456 61.7L437.3 72.7Z" fill="#1d4e6b" stroke="#1d4e6b"></path><path d="M437.3 72.7L443.3 0L378.7 21.7Z" fill="#297ea6" stroke="#297ea6"></path><path d="M0 233.3L0 335L62.7 299Z" fill="#15384f" stroke="#15384f"></path><path d="M67.3 456L86.7 456L57.7 409.3Z" fill="#246688" stroke="#246688"></path><path d="M57.7 409.3L86.7 456L94.3 399.3Z" fill="#1d4e6b" stroke="#1d4e6b"></path><path d="M169 0L127.3 0L126 14.7Z" fill="#205a7a" stroke="#205a7a"></path><path d="M76.3 14.7L44.7 67.3L80.7 74.7Z" fill="#205a7a" stroke="#205a7a"></path><path d="M76.3 14.7L80.7 74.7L126 14.7Z" fill="#1d4e6b" stroke="#1d4e6b"></path><path d="M0 125L0 140.3L46.7 167Z" fill="#112e42" stroke="#112e42"></path><path d="M0 335L0 352.7L52.7 345.7Z" fill="#112e42" stroke="#112e42"></path><path d="M44.7 67.3L0 125L46.7 167Z" fill="#081a28" stroke="#081a28"></path><path d="M0 456L67.3 456L57.7 409.3Z" fill="#00101c" stroke="#00101c"></path><path d="M0 352.7L0 369.3L52.7 345.7Z" fill="#205a7a" stroke="#205a7a"></path><path d="M127.3 0L76.3 14.7L126 14.7Z" fill="#00101c" stroke="#00101c"></path><path d="M44.7 67.3L0 32.7L0 125Z" fill="#205a7a" stroke="#205a7a"></path><path d="M397.3 456L456 456L444.3 373.3Z" fill="#205a7a" stroke="#205a7a"></path><path d="M456 61.7L443.3 0L437.3 72.7Z" fill="#19435d" stroke="#19435d"></path><path d="M456 61.7L456 0L443.3 0Z" fill="#205a7a" stroke="#205a7a"></path><path d="M19.7 0L44.7 67.3L76.3 14.7Z" fill="#1d4e6b" stroke="#1d4e6b"></path><path d="M19.7 0L0 32.7L44.7 67.3Z" fill="#205a7a" stroke="#205a7a"></path><path d="M0 369.3L0 456L57.7 409.3Z" fill="#00101c" stroke="#00101c"></path><path d="M127.3 0L19.7 0L76.3 14.7Z" fill="#277297" stroke="#277297"></path><path d="M19.7 0L0 0L0 32.7Z" fill="#277297" stroke="#277297"></path></g></svg>